<?xml version="1.0" standalone="no"?>
<!DOCTYPE svg PUBLIC "-//W3C//DTD SVG 20010904//EN"
 "http://www.w3.org/TR/2001/REC-SVG-20010904/DTD/svg10.dtd">
<svg version="1.0" xmlns="http://www.w3.org/2000/svg"
 width="500.000000pt" height="500.000000pt" viewBox="0 0 500.000000 500.000000"
 preserveAspectRatio="xMidYMid meet">

<g transform="translate(0.000000,500.000000) scale(0.100000,-0.100000)"
fill="#000000" stroke="none">
<path d="M909 3391 c-92 -7 -109 -19 -109 -77 0 -190 148 -1035 254 -1455 83
-325 73 -314 294 -314 180 0 254 14 279 51 19 29 21 37 83 374 86 465 116 565
170 565 55 0 101 -163 191 -667 26 -145 49 -250 60 -267 11 -19 32 -34 56 -41
46 -13 299 -26 336 -16 27 6 27 6 7 26 -19 19 -20 34 -20 318 0 303 11 709 31
1182 8 200 14 271 25 290 14 23 13 23 -10 -3 -22 -23 -26 -38 -26 -85 0 -74
-24 -278 -55 -467 -13 -82 -31 -199 -40 -260 -21 -142 -42 -224 -64 -254 -41
-54 -75 5 -122 211 -31 132 -99 370 -165 570 -56 171 -111 225 -219 216 -66
-6 -103 -32 -139 -97 -33 -61 -174 -505 -206 -646 -30 -138 -57 -226 -75 -252
-48 -68 -83 15 -124 298 -11 74 -31 205 -45 291 -14 86 -30 215 -36 285 -13
150 -24 199 -48 212 -24 12 -192 20 -283 12z"/>
<path d="M2952 3195 c0 -16 2 -22 5 -12 2 9 2 23 0 30 -3 6 -5 -1 -5 -18z"/>
<path d="M2943 3125 c0 -22 2 -30 4 -17 2 12 2 30 0 40 -3 9 -5 -1 -4 -23z"/>
<path d="M2932 3050 c0 -19 2 -27 5 -17 2 9 2 25 0 35 -3 9 -5 1 -5 -18z"/>
</g>
</svg>
